<?xml version="1.0" encoding="UTF-8" standalone="no"?><!DOCTYPE svg PUBLIC "-//W3C//DTD SVG 1.1//EN" "http://www.w3.org/Graphics/SVG/1.1/DTD/svg11.dtd"><svg width="100%" height="100%" viewBox="0 0 850 284" version="1.1" xmlns="http://www.w3.org/2000/svg" xmlns:xlink="http://www.w3.org/1999/xlink" xml:space="preserve" xmlns:serif="http://www.serif.com/" style="fill-rule:evenodd;clip-rule:evenodd;stroke-linejoin:round;stroke-miterlimit:2;"><rect id="WebLogoDark" x="0" y="0" width="850" height="283.333" style="fill:none;"/><clipPath id="_clip1"><rect x="0" y="0" width="850" height="283.333"/></clipPath><g clip-path="url(#_clip1)"><g><path d="M461.539,74.545l104.592,-0l0,29.849l-104.801,0l-0,178.939l74.686,0l0,-104.394l30.116,0l0,104.394l74.686,0l0,-195.179l-0.01,0c-0.704,-48.739 -40.452,-88.044 -89.419,-88.153l0,-0.001l-0.201,0l-0.009,-0l0,0l-89.639,0l0,74.545Z" style="fill:#393939;"/><path d="M670.513,283.333l89.429,0c49.506,0 89.639,-40.057 89.639,-89.47l-0,-0.002l0,-89.465l-89.025,0l-0.034,-0l-0.37,-0.001l0,-29.85l89.848,0l0,-74.545l-89.848,0c-49.506,0 -89.639,40.057 -89.639,89.47c-0,0 -0,89.47 -0,89.47l89.429,0l0,29.849l-89.429,0l0,74.545Z" style="fill:#393939;"/><rect x="0" y="208.789" width="430.95" height="74.545" style="fill:#4646b9;"/><rect x="0" y="104.394" width="431.423" height="74.545" style="fill:#46b846;"/><rect x="0.474" y="-0" width="430.95" height="74.545" style="fill:#b94747;"/></g></g></svg>