<?xml version="1.0" encoding="UTF-8" standalone="no"?><!DOCTYPE svg PUBLIC "-//W3C//DTD SVG 1.1//EN" "http://www.w3.org/Graphics/SVG/1.1/DTD/svg11.dtd"><svg width="100%" height="100%" viewBox="0 0 2329 1698" version="1.1" xmlns="http://www.w3.org/2000/svg" xmlns:xlink="http://www.w3.org/1999/xlink" xml:space="preserve" xmlns:serif="http://www.serif.com/" style="fill-rule:evenodd;clip-rule:evenodd;stroke-linejoin:round;stroke-miterlimit:2;"><rect id="画板2" x="-1630.631" y="-218.073" width="4266.667" height="2133.333" style="fill:none;"/><g><path d="M1.256,446.529l626.512,-0l0,178.801l-627.768,0l-0,1071.858l447.373,0l0,-625.329l180.394,0l0,625.329l447.373,0l0,-1169.138l-0.059,0c-4.219,-291.948 -242.31,-527.388 -535.628,-528.045l0,-0.004l-1.201,0l-0.054,-0l0,0l-536.942,0l0,446.529Z" style="fill:#e7e7e7;"/><path d="M1253.024,1697.187l535.687,0c296.545,0 536.943,-239.944 536.943,-535.929l-0,-0.013l0,-535.903l-533.265,0l-0.205,-0.002l-2.217,-0.007l0,-178.805l538.198,0l0,-446.529l-538.198,0c-296.545,0 -536.943,239.944 -536.943,535.929c-0,0 -0,535.929 -0,535.929l535.687,0l0,178.801l-535.687,0l0,446.529Z" style="fill:#e7e7e7;"/></g></svg>